<svg xmlns="http://www.w3.org/2000/svg" viewBox="0 0 488.69 1030.2"><defs><style>.cls-1{fill:none;stroke:#ff4f00;stroke-miterlimit:10;stroke-width:8px;}</style></defs><g id="APEAK"><path class="cls-1" d="M6373.29,6659.49c-7,5.55-16.88,15.3-22.15,30.06-3.74,10.46-3.55,19.11-3.17,36.4.26,11.73,1.57,16.64,3.17,20.57,1.12,2.76,4.26,9.69,12.66,17.41,6.67,6.14,17.33,13.4,39.56,19,11.85,3,40.17,9.79,74.37,3.16,0,0,1-.18,38-9.49.26-2.11,2.77-25.49-14.24-39.56-10.14-8.38-27.64-13.82-38-6.33-6.88,5-7.85,13.7-9.5,28.48-.75,6.78-.93,13.43,1.59,45.89,1.57,20.29,2,22.11,1.58,28.48-1,15.44-4.09,15.4-4.75,30.07-.49,10.89,1.13,12.83,1.58,33.23,0,0,.21,9.17,0,17.41-.72,29.34-7.41,39.6-7.91,58.55-.47,17.83-1.25,34.53,9.5,42.72,10.37,7.91,29.74,6.7,39.56-3.16,11.68-11.73,3.88-29.72-1.59-82.29-6.92-66.55,1.47-77.17,4.75-80.7,12.39-13.33,33.32-13.06,64.88-12.66,23.64.3,41.88.53,64.88,7.91,13,4.17,19.4,8,26.9,4.75,14.13-6.16,16.23-30.63,17.41-44.31,1.47-17.13-1.42-30.12-6.33-52.22-2.21-9.94-3.78-14.39-6.33-19,0,0-8.56-15.41-25.32-23.73-18.82-9.35-32.27-1.47-63.64.92-48,3.66-58.25-11.59-74-.92-22.35,15.1-32.83,66.67-4.75,93.36s73.87,8.25,94.95-11.08c18.15-16.65,29.16-44.1,22.15-50.64-8.39-7.82-42.19,14.79-53.8,23.74-35.48,27.34-60,78.21-64.88,270.59-3.72,145.35,7.29,232.55,1.58,291.17-3,30.45,0,61.22-1.58,91.78-.3,5.86-.65,11.66,1.58,19,10.2,33.53,61.08,55.93,87,42.72,5.42-2.75,4.79-4.54,17.41-12.66,14.46-9.3,20-10,30.07-17.4,12.94-9.54,10.33-13.25,19-19,20.65-13.69,57.45-7.11,77.53,11.08,5.3,4.79,7.12,8.29,17.41,17.4,13.61,12.05,21.5,19,28.48,17.41,10.54-2.43,13.93-23.17,15.83-34.81,3.58-21.92,8.11-49.63-6.33-77.54-20.69-40-65-50.78-83.87-55.39-38.28-9.33-70.46-1.52-102.86,6.33-30.53,7.41-45.79,11.11-61.71,22.16-46.86,32.52-69.28,105.93-49.06,167.73,15.89,48.53,52.77,73.73,63.3,80.71,55,36.42,140,44,175.65,6.33,24.58-25.95,15.36-62.37,50.64-83.87,6.07-3.7,22.66-13.82,36.39-7.91,29.58,12.71,20.78,89,19,104.43a263.65,263.65,0,0,1-22.15,79.13" transform="translate(-6343.78 -6656.35)"/></g></svg>