<svg id="Layer_1" data-name="Layer 1" xmlns="http://www.w3.org/2000/svg" viewBox="0 0 600 3379.22"><defs><style>.cls-1{fill:none;stroke:#231f20;stroke-miterlimit:10;stroke-width:2px;}</style></defs><path class="cls-1" d="M142.55,265.15H273.36s15.36-25.18,8.24-61.78c0,0-7.71-14.83-41.34-31.25,0,0-17.4-2.77-9.29-22.55s9.1-25.32,9.1-25.32a79.26,79.26,0,0,1,21.75-24.52C276.26,89.24,279,82.91,279,82.91s5.15-4.94,8.9-3c0,0,5.94,2.57-1.78,14.83s-8.9,12.66-8.9,12.66l-8.5,11.47s-20.57,24.53-9.5,30.86a110.66,110.66,0,0,0,22.55,9.49,99.46,99.46,0,0,1,9.69,4.75c2.38,1.58,13.65,5,19,4.75s12.09,1.78,12.87,11.67-2.58,21.76,2.36,36c0,0,4,20.77-4.55,28.09S306.92,241,306.92,241s-5.73-10.09-4.35-30.86,1.78-25.12-4.15-25.32S272.11,180,272.11,180s-13.85,1-18.79-10.08a117.45,117.45,0,0,0-10.68-19s-4.75-4.28-4.35-13.06a68.82,68.82,0,0,0-2.18-18.2s-.79-13.84,16.22-.19c0,0,7.32,4.15,7.32,22.94,0,0-.2,1.78,2.77,2.57s7.32,2.77,8.11,5.94,4.74,3.16,4.74,3.16,6.93-2.37,27.7,7.72c0,0-29-16-24.93-38.38,0,0,1.59-13.25,9.1-12.33,0,0,4.29.79,3.83,5s-4.75,4-4.75,4-7-.19-5.34-8.9,8.37-10,8.37-10,9.43-3,7.39,8.24c0,0-1.92,5.87-8.05,3.3s-.72-12.26-.72-12.26,5.07-9,12.59-7c0,0,4.88.72,3.1,7.45,0,0-2,5.73-9.43,1.51,0,0-4.81-3.16-1.78-13.38,0,0,1.85-7.45,8.7-5.21,0,0,6.6,1.91,2.18,10.55,0,0,2.44,4.81,10,1,0,0,10.28-4.15,6.26-17.74,0,0-5.51-8-12.86-4.51,0,0-8.63,4.45-4.28,13.74,0,0,1.71,4.88,10.28,4.09,0,0,9.23-2.24,10.16,4.82s-1.92,21-1.92,21-1.45,7.48.83,12.82S325,150,325,150s-1.28,13.05,4.55,15.72,11.67,4.75,23.24-5.83,30.86-36.1,30.86-36.1,7.65-8.74,5.08-16.32-8.44-3-8.44-3-3.76,4.55-.93,8.57c0,0,3.5,3.43,7.52-1.52s.46-11.93.46-11.93-2-7.91-10.74-4.62c0,0-3.68,3.38-.2,6.73,0,0,3.36,3.62,6.13,2.44s.59-13.32.59-13.32S380.9,85,374,86.47c0,0-5.6.27-4.81,7.06s8.51,2.77,8.51,2.77,4.81-3.7-.53-12.6-9.56-6.85-9.56-6.85S360,79,362.57,88.71c0,0,3.06,4.87,9,.14,0,0,3.56-7.72-3.83-16.29s-15.62-3.63-15.62-3.63-6.79,3.83-5.94,13.26c0,0,.14,3.36,7.59,2.7s5.2,2.24,5.2,2.24l-9.89.46s-10-1.38-11.86,10.09l-.47,8.57s.53,15-4.68,23.67-11.8,26.64-10.81,31.85,2.7,9.89,14.11,12.46c0,0,6.61.78,11-3.33s35.92-16.19,35.92-16.19,11.47-4.15,16.61-2.76,6.13,1.18,7.91-1.79,7.52-6.72,7.52-6.72,3-3.17,1.38-10.29,1.59-17.6,2.18-19.18,3.76-9.7,8.7-3.17,8.31,23.34,6.13,33.43-9.29,24.13-9.29,24.13-4.16,7.91-16.42,15-15.23,13.45-15.23,13.45-4.35,12.85-2.18,22-2.37,12.86-2.37,12.86-4.75,1.38-8.7-4.75-8.31-23.34,4.74-33.62,15.24-15.24,28.88-17.41,15.63-5.74,15.63-5.74,5.74-4.74,4-14-9.1-38.37-16.42-47.08L398.51,89s-15.63-17.53-18.2-5.14c0,0,.39,5.54,9.49,15.83,0,0,2.18,1.18,3.36,9.69s7.52,14.63,7.52,14.63,4.55,15.83,7.12,17.21,2.77.4,2.77.4-8.31.39-18.2,5.93-42.72,23.74-48.26,30.66-2,18-2,18a54.24,54.24,0,0,1,5.94,27.3c-1,15-3,41.54,11.07,42.53s112,0,112,0,46.09,5.93,14.44,51-80.71,36-74.38,13.85,54.2-10.29,28.88,35.6l-25.32,45.89s-28.87,20.18-32.83,57.36-5.14,61.59-11.34,58.42-4.09-10.81-2-8.7,9.1,17.93,9.1,17.93,13.71,32.31,12.4,46.42-7.52,10.42-8.71,5.67-2.5-22,4.62-14,6.59,21.76,6.59,21.76,1.72,52.62-4.09,64.75-14.77,35.34-38.37,27.56-31.76-21.76-30.52-43.39S348.53,622,348.53,622s3.66-.36,5.11,1.45c0,0-20,10.35-36.33,1,0,0-10.29-6.62-12.07-22.45s-11.47-21.46-11.47-21.46S273.4,557,297.53,553.19,366.46,584,366.46,584s23.24,24.52,28.68,49.35c0,0,7.22,21.56-3.36,41.73s-18.3,31.85-18.3,31.85S344,745.05,338.77,748.32s-105.23,94.55-105.23,94.55S130.94,927.13,126.2,985.68,160,993.59,160,993.59s35.34-61.18-47.48,0-19.38,173.28,11.87,183.17,40.35,9.1,56.18,4.35,16.61-20.57,16.61-20.57-.39-7.12,15.83-7.12,49.45,5.14,29.67,9.89c0,0-23.34-.2-25.92,6.46s30,1,30,1,13.39-1.58,14.25,3.63c0,0,.46,5-6.66,5.14s-21.3.6-21.3.6-11-.14-3.69,3.89,20.37.43,20.37.43,13.85-3.93,13.45.09-1.38,5.35-11.87,6.33-24.19,1.85-24.19,1.85-3.89-.26-4,1.78,2.31,1.91,5.08,1.85,23.14-1.32,23.14-1.32,7.32-.66,7.38.72-3.49,4.22-12.32,4.16-17.94.79-17.94.79-4.88-.66-11.67,4.55-8.83,5.87-14.37.39-11.48-17.67-9.17-26.37,8.57-16,8.57-16,9.43-8.24,10.55-20.64-3.69-36.72-3.69-36.72-5.9-33.83-4.91-37.29c0,0,67.45-7.62,93.36,7.81l10.88,7.12s2.18,3.17,8.51-1,67.35-23.6,113.24-17c0,0,5.17.43,6.53,3,0,0-6,67.42-8.91,81.66,0,0,.94,10.09-7.71,6s-24.23-4.11-24.23-4.11-10.68,1.29-1.09,8.11c0,0,15.63,6.18,26.95,7.91,0,0,7.37,1.19,6.68,3.91,0,0-3.76,3.17-12.86-1l-22.6-6s-9.15-3.51-11.32-.55c0,0-2.38,2.13,2.57,5s25.07,10.63,25.07,10.63l11.42,4.2s5.84,3.47-2.17,2.82-23.34-4.35-23.34-4.35-16.07-5.39-18.2-1,9.89,6.48,9.89,6.48,25.66,6.58,25.91,9.64c0,0-.2,1.83-4.1-.24s-22.9-6.78-22.9-6.78-1.88-.94-2.82.05.65,2.42,1.14,2.62,8.37,7.77,20,10.93,20.31,2.64,26.64-6.72,6.59-21,6.59-21,1.32-7.65,3.95-8.18,2.77,3.56,3.57,7.78,3,23.21-5.68,28.88-15.82,6.6-33.36,1.58-30.33-8.57-30.33-8.57-17.67-2.77-28.74.93c0,0-22,6.06-24.66,8.44s-4.95-2.64-5.15-4.69-1.32-46-1.32-46L311,1092.1s-1.38-3.5,3.36-3,5.28-.47,5.28-.47,3.69-2.24,4.09,2.44,1.51,45.1,1.51,45.1l.46,44.11-.19,30.86s.72,2.11-2.9,2-12.33-.33-12.14-.39-13.65-12.46-19.45-14.57-13.71-2.18-13.71-2.18-5.74-.72-6,.53,4,2.77,4.94,3,9.37,4.42,25.06,1.19,35.21-6.2,35.21-6.2,18.13-5.6,42.52,8,45.57,23,62,6.8,13.85-29.08,64.88-19.78c0,0,34.62,3.13,18,48s-54.59,65.39-79.12,58.27,81.5-73.59,36.4,9.49-82.29,47.49-82.29,47.49-6.59-5.56-9.23-7.14-12.66-14.77-17.93-1-7.92,32.7,4.22,47.21c0,0-20.84,16.35-25.85,38.63,0,0-2.24,6.07-5.28,9.1s2.51,16.35,2.51,16.35,8.31,20.44,2.64,29.54-23.74,32.18-23.74,32.18-9.76,11.6.4,19.91S341,1548,348.53,1547.84s9.49-1.59,7.38-3.57-14.11-6.85-13.45.4.66,8,.66,8,.26,2.38-2.9,5.94-2.51,9.89-2.51,11.87.53,8.57,3.83,10.55,18.33,10.68,18.33,10.68,8,4.09,4.22-1.19-17-20.44-17-20.44-7.69-6.88-7.26,1.45,2.51,10.68.14,14.64-5,7.78-3,12.53,8.85,8.17,7.27,16.08-5.28,19.92-.66,29.28,11.73,15.69,24.92,13.58,36-10.81,42.46-.26,6.4,13.84,6.4,13.84l10.68,20,11.8,26.44s10.15,27.3,6.33,40.75-12.26,23.47-4.62,23.34c0,0,2.64.79,5.81-1.72s.52,1.84.52,1.84-7,3.7-9.49,2.38c0,0-1.85,11,4.48,19.32s15.63,30.82,15.63,30.82,8.31,9.34-1.19,14.88-11.82,4.79-11.82,4.79-9.05,0-12.85,5.1-11.72-2.08-11.28-4.6,6.22-12.28,11.75-10.57,3,4,5.28,14.51,5.8,10.81,4.35,19.38-5.93,11.34-9.63,14.77-12.39,5.8-20.3,6.46c0,0,.39-2.5,10.15-7.91s12.92-10.55,12.92-10.55,10.69-9,5.94,3.43c0,0-5.14,7.38-8.84,9.89s2.64,6.86,2.64,6.86,3.82,3.29.92,10.94a8,8,0,0,1-10,5.28l.53,18.19s-2.37,17.38-13.35,22.52-26.61,3.66-34.72-2.57c0,0-25.71-16.22-26.9-17.9s-4,1.32-4,1.32-38.54,41.21-48,114c0,0-2.9,31.64,1.58,40.48,0,0-1.05-23.74,7.65-22.81s5.41,22.81,5.41,22.81-4.22,11.47-5.54,2.11,5.27-6.33,9.62-.79-7.25,17.54-7.25,17.54-19.38,23.93-14,36,18,10.68,22.15,10.68c0,0,3.76-.4,4.95-1.19,0,0-8-3.95-7.91-5.8s14.9-10.29,17.53-6.73-7.25,14-9.89,18.86c0,0-2.11,13.72,1.59,11.87s8.91-3.46,12.62-.94,12,3.56,12,3.56,6.53-2-.73,5.69c0,0-1.58,2.63-11.2-1.06s-13.19-5.67-18.6-1.71a10.55,10.55,0,0,0-4,11.87c.79,1.71,4.08,2,8.17-1.45s20.44-9.89,22.55-4.49-6.75,13.06-9.77,14.77-15.92,9.89-13.56,0,2.63-4.88,3.29-2,.13,12.13.13,12.13,0,20.44.53,24.14,5.14,30.72,10.81,38.11c0,0-8-1.06-13.85-36.93,0,0-2.11-4.88-6.72-14.5s-16.22-30.33-15.69-56c0,0-2.25-8,12.66-23.86S331.65,2089,331.65,2089s-7.12-36,1.58-43.91,33.23-21.76,46.68-1.19c0,0,10.29,12.27,8.57,24.79,0,0-5.4,4.62-13.45-.26s-20-8.83-22.28-.4,7.12,7.52,7.12,7.52a2.81,2.81,0,0,0,2.5-2.77c.27-2.64,1.45-9.23-9.23-10.15s-9.62,12.13-6.46,36.26,96.13,18.2,13.06,172.88-118,100.09-118,100.09-92.83-174.59-80.7,49.58l2.51,74.64s-4-1.19-3.76,11.27-1.58,51.63-1.58,51.63-.8,9.89,5.73,8.9,35.8-7.77,47.47.07,18.4,13.38,19.59,25.65c0,0,.59,1.18,4.74,0s-1.18-31.65-20-37.39-47.28-9.3-48.27-26.5-2.37-33.43-2.37-33.43l35.8,14.44s53,14.83,62.9,44.5c0,0,6.33,19.39,5.34,30.66s-13.84,8.24-13.84,8.24l-12.86-.92s-3.17-1.19-4.75,2.77-6.72,0-6.72,0-6.53,9.3-10.68,11.27-10.09,8.11-9.7,15.23,2,17.81,2,17.81,2.77,9.49,9.1,11.27,6.33,2.77,14.24,2.38,14.05,1.78,14.84,5.53-3.17-24.92-3.17-24.92-1.09-14.24-4.94-20.47-13.55-8.41-18.4-5.14-12.06,10.38-9.89,21.75,6.13,22.35,20.18,18.4,9.89-17.51,9.89-17.51-1-17.4-6.13-18.69c0,0-16-1.58-19.19,5.64,0,0-4.45,3.76,2.17,1.78s23.54-12.46,26.81,3.86,4,49.15,4,49.15.11,16,6.94,18a27.71,27.71,0,0,0,11.62,5.14,26,26,0,0,1,12.06,6.23s1.88,3.27,8.11,3.37,33.53,0,33.53,0,3.36.89,3.86-7.82,2.27-46.41,2.27-46.41-.79-30.07-2.24-32.84-5.93-7.78-9.63-9-7.65-6.59-7.65-6.59-15.29-12-27.42-4.88c0,0,0-7.25-4.88-11.21,0,0,5.67,3.56,6.19,6.46,0,0,12.66-3.69,19.65.27,0,0,1.45-5.54,12-10.82s10-9.62,10-9.62,2.5-7.12,4.48.79a41.46,41.46,0,0,1-8.84,14.9c-6.33,6.59-1,15.82-1,15.82s14.64,9.89,5.93,17.28l-8.44,1.19-51.16-.27s4.48-21.23,23.87-21.49,26.77,16.61,27.42,23.07c0,0-.25.51.57.73s2.07-.25,2.15,2.55-.08,54.09-.08,54.09a3.55,3.55,0,0,1-4.09,3.23c-3.75-.4-4.48-.53-4.48-.53s-.59-38.18,5-37.19c0,0,6.6-3.76,3.69,37.92,0,0,.17.54-1.46.88s-35.46-1.21-35.46-1.21l.89-26.41s1.48-10.29,6.63-10.34c0,0,6.62-2.77,6.67,13.55s-.19,22.4-.19,22.4l-35,.1.25-60.82,1.19,28.48s1.09-5.24,2.87-4.94,5.54,15.53,4.05,38.57l20.57,22V2838.3s-1.38,6.13,5.74,7.12,7.52-1,7.52-5.54V2712.1s-.5-3.46,3.82-3.56h13.79s2.07-.17,2,2.57.33,99.63.33,99.63,4.75,3,4.49,10.81-.66,6.59-.66,6.59a31.73,31.73,0,0,1-3.83,2.77c-.39,0-.39,9.56-.39,9.56s-.69,5.54-5.54,5.2-13.06,2.81-12.26-4.41,0,316.69,0,316.69v57.89s-.89-8.44-4.26-14-18.49-37.19-47.86-20.18c0,0-5.74,2.77-12.47,13s-22.25,16.61-39.36,4.65-15-34.52-15-34.52,9-21.66,29.67-31.15,53.11-4.16,61,2.37,29.54,18.33,30.56,66.76a53.48,53.48,0,0,1-26.54,41.83c-25.84,15.17-74.9,12-90.2-17.27s-8.3-53-7-57.23,6.06-28.62-66.2-57.1l-28.75-6.86s40.75-21.76,110-4,163,1.19,176.83-2c0,0,16.22,2.77.4,73.58s0,103.25,0,103.25,3.56,7.32,6.72,9.1c0,0-112.74,39.11-166.54,9.89s-113.15-3.16-113.15-3.16,49.18-94.16-15.76-176.44"/></svg>