<svg xmlns="http://www.w3.org/2000/svg" viewBox="0 0 421.44 1005.86"><defs><style>.cls-1{fill:none;stroke:#ff4f00;stroke-miterlimit:10;stroke-width:8px;}</style></defs><g id="APEAK"><path class="cls-1" d="M6532.9,6743.36c4.07,1.11,44.4,12.81,57,50.63,5,15.08,3.14,28.37,1.59,39.56-4.08,29.34-17.71,49.49-31.65,69.63-9.9,14.3-25.5,36.41-53.4,56.76-25.73,18.76-49.95,36.42-70,27.11-17.71-8.21-29.22-36-20.57-55.39,1.15-2.59,6-13.4,15.82-15.82,21.68-5.32,56.88,32.74,69.63,74.37,10.84,35.43-3.26,45.05,9.49,82.29,9.08,26.5,23.72,43.54,38,60.13,14.91,17.35,38.2,43.85,77.54,60.13,12.87,5.33,40,16.2,73.29,11.77a116.67,116.67,0,0,0,12.16-2.27c12.15-3,47-11.54,61.71-41.14,9.58-19.22,6.15-38.16,4.75-45.89-1.45-8-6.45-35.62-30.07-49.06-3.59-2.05-22.15-12.6-38-4.75-12.15,6-17.52,20.34-20.58,28.49a82,82,0,0,0-3.85,14.78c-1.18,8,.16,8.46-.89,10.54-5.6,11-42.15-5.48-55.39,9.49-5.37,6.07-4.81,14.95-4.74,15.82.54,7.12,4.65,12.31,9.49,17.41,15.27,16.07,30.07,23.74,30.07,23.74,33.13,17.16,49.69,25.75,58.55,38,14.45,20,12,45.78,9.49,72.8a176.36,176.36,0,0,1-11.08,47.47c-3.31,8.41-16.59,40.14-49.05,68-24.33,20.91-47.72,29.62-66.46,36.4-18.44,6.67-51,10.34-115.52,17.4-36.47,4-43.75,4.28-53.8,0-24.56-10.43-35.72-35.24-49.06-64.87a230.22,230.22,0,0,1-19-74.38c-2.64-31.06-4.15-48.78,7.92-60.13,16.25-15.29,46.22-8.71,61.71-1.58,16.29,7.5,25.55,19.76,28.48,23.73a78.2,78.2,0,0,1,12.66,26.91c.61,2.36,7,28.12,0,31.64-6.27,3.15-24.41-10.87-30.06-28.48-8.55-26.64,10.39-65,42.72-77.54,25.12-9.77,56.86-3.45,72.79,15.83,7.77,9.39,9.4,21,12.66,44.3.95,6.77,4.35,33,0,76-1.65,16.31-3,29.86-6.33,42.72-15.49,60.21-63.48,66.68-94.94,129.76-7.7,15.43-21.34,42.78-19,76,5,70.83,79,113.16,91.78,120.26" transform="translate(-6362.48 -6739.5)"/></g></svg>